<svg xmlns="http://www.w3.org/2000/svg" width="300" height="300" fill="none"><path fill="#fff" d="M89 90.8c2.7 3.7 1.6 17.7-1.8 20.6-3.4 2.9-7.7 5.5-11.3 8.2-9.4 7.2-7 18.8-7.5 31-1.2 23.6-.3 44.8-1.5 68.4-.5 9 2.1 24.1 8.2 30.5 5.3 5.5 12.3 3.7 19.8 4 24.6.7 41.3.6 65.9-.4 4-.2 8.2-.5 11.3-3a46.4 46.4 0 0 0 10.8-24.6c.3-32.8-1-58.3-.7-91.1.1-5.6-.2-12-4.3-15.5-2.2-2-5.2-2.6-7.7-4-6.4-3.4-9.9-14.1-8-21.4L89 90.8Z"/><path fill="#000" d="M93.4 252H95c24.2.7 40.8.6 65.8-.4 4.2-.2 7.8-.5 10.5-2.7a45.1 45.1 0 0 0 10.3-23.4c.1-16.4-.1-31.2-.4-45.5-.2-14.4-.5-29.2-.3-45.6 0-5.4-.2-11.3-3.8-14.4a16 16 0 0 0-4.5-2.4c-1-.4-2-.8-3-1.4-6.7-3.6-10.1-13.8-9.1-21.3l-69.1-2.5c1.5 5.7.4 17-3.1 20-2.1 1.9-4.5 3.6-7 5.2l-4.4 3.1C70 126 70 134 70 143.1c0 2.5 0 5-.2 7.6-.6 11.8-.6 23.2-.7 34.1 0 11-.1 22.5-.7 34.3-.5 9.7 2.3 23.7 7.8 29.3 3.7 4 8.4 3.8 13.9 3.6h3.3Zm29.9 3.4a926.5 926.5 0 0 1-33.1-.4c-5.7.1-11.6.3-16.2-4.5-6.6-7-9-22.6-8.6-31.5.6-11.8.7-23.2.8-34.2 0-11 .1-22.4.7-34.2l.1-7.5c0-9.5 0-18.6 8-24.7l4.6-3.2c2.3-1.6 4.7-3.2 6.7-5C89 108 90 95 87.9 91.7c-.4-.4-.4-1-.1-1.5.2-.5.7-.8 1.3-.8l73 2.8a1.5 1.5 0 0 1 1.4 1.8c-1.7 7 2 16.8 7.3 19.7l2.8 1.3c1.8.7 3.7 1.5 5.3 2.9 4.5 4 4.9 10.6 4.8 16.6-.1 16.4.1 31.2.4 45.5.2 14.4.4 29.2.3 45.6 0 6.6-6.2 21.6-11.4 25.7-3.4 2.8-7.7 3.2-12.2 3.3-14.2.6-25.7.9-37.5.9Z"/><path fill="#ACD4F7" d="M88.4 75.9c-9.6 1-6 13-6 17.4 0 1.4.1 2.9.9 4.1 2 3.4 7.5 3.9 12 3.9h65.5c3.1 0 6.7 0 8.7-2.1a7.1 7.1 0 0 0 1.6-4.3c.6-4.8 2.2-12.6-.5-15.8-1.7-2-7.7-3-10.9-3.2-20.2-1.1-57.9-1.3-71.3 0Z"/><path fill="#000" d="M88.5 77.3c-1.7.2-3 .8-3.9 1.9-2 2.5-1.4 7.3-1 10.9l.3 3.2c0 1.2 0 2.4.6 3.3 1.7 2.9 7 3.2 10.9 3.2l65.4.1c3.1 0 6.1-.2 7.6-1.7.8-1 1.1-2.2 1.3-3.5l.2-2c.6-4 1.5-10.3-.5-12.7-1-1.3-6-2.4-9.8-2.6-19.8-1.1-57.8-1.3-71 0ZM161 103H160.6l-65.2-.2c-5 0-11-.5-13.4-4.5-1-1.6-1-3.4-1-4.9l-.3-2.9c-.5-4-1.2-9.6 1.6-13a8.3 8.3 0 0 1 6-3c13.7-1.3 51.4-1 71.5 0 0 0 9.3.6 11.9 3.8 2.8 3.3 1.9 9.8 1.2 15l-.3 2a8.5 8.5 0 0 1-2 5c-2.4 2.4-6.2 2.7-9.7 2.7ZM173.2 139.3l-97.9-1a.5.5 0 0 1-.4-.5c0-.3.2-.5.4-.5l98 1c.2 0 .4.3.4.5 0 .3-.2.5-.5.5ZM74.6 226.1a.5.5 0 0 1-.5-.4c0-.3.2-.5.5-.5l100.5-.4c.3 0 .5.2.5.4 0 .3-.2.5-.4.5l-100.6.4ZM92.6 147.7h-5.4c-4-.2-8.6-.2-11.8-.1-.3 0-.5-.2-.5-.5s.2-.5.4-.5h12l5.3.1c.2 0 .5.2.5.5s-.3.5-.5.5Z"/><path fill="#fff" d="M213.4 48.5c-4.2 3.3-6.2 8.8-4.6 13.5 1.6 4.6 16.7 23.6 22.4 28.7 2.9 2.6 6.5 4.8 10.7 5 4.2.2 9-2 10.8-6 2-4.3 0-9-2.2-12.7-5.4-9-12.4-17-19.3-24.8-7.4-8.5-14.2-6.6-17.8-3.7Z"/><path fill="#000" d="M214.3 49.6c-3.7 3-5.5 8-4.1 11.9 1.5 4.4 16.4 23.1 22 28a16 16 0 0 0 9.8 4.7c3.3.2 7.7-1.6 9.4-5.1 1.4-3 .7-6.6-2.2-11.3a169.7 169.7 0 0 0-18.8-24.3l-.3-.3c-7.5-8.6-13.5-5.4-15.8-3.6Zm28 47.6h-.5c-4-.2-7.8-2-11.6-5.5-5.5-4.9-21-24-22.8-29.3-1.7-5.1.4-11.3 5-15 4.7-3.8 12.4-4.7 20 3.9l.2.2a172 172 0 0 1 19.2 24.8c2 3.5 4.6 8.8 2.2 14-2.1 4.6-7.3 6.9-11.6 6.9Z"/><path fill="#000" d="m225.6 76-.3-.1a.5.5 0 0 1 0-.7c3.2-3.4 6.8-6.6 10.6-9.4.2-.1.5 0 .7.1.2.2.1.6-.1.7a84.3 84.3 0 0 0-10.9 9.4Z"/><path fill="#fff" d="M278.8 120.3c-3.4-4.2-9-6.1-13.5-4.6a148.2 148.2 0 0 0-28.7 22.4c-2.7 3-4.9 6.5-5 10.7-.3 4.2 2 9 6 10.8 4.3 2 8.9 0 12.6-2.2 9-5.4 17-12.3 24.8-19.3 8.5-7.4 6.6-14.2 3.8-17.8Z"/><path fill="#000" d="M268.6 116.6c-1 0-2 .2-2.9.5a148.1 148.1 0 0 0-28 22 16 16 0 0 0-4.7 9.8c-.2 3.3 1.6 7.7 5.2 9.4 3.9 1.8 8.3-.4 11.3-2.1 8.8-5.3 16.6-12.2 24.2-18.9l.3-.3c8.6-7.5 5.4-13.5 3.6-15.8-2.3-2.9-5.8-4.6-9-4.6ZM241.4 162c-1.5 0-3-.3-4.5-1-4.7-2.2-7-7.8-6.8-12.2.2-3.9 2-7.8 5.4-11.6 4.9-5.5 24-21 29.3-22.8 5.1-1.7 11.3.4 15.1 5.1 3.7 4.7 4.6 12.3-4 19.8l-.2.3a172.7 172.7 0 0 1-24.7 19.2c-2.6 1.5-6 3.2-9.6 3.2Z"/><path fill="#000" d="M261 143.6c-.2 0-.3 0-.4-.2a82.7 82.7 0 0 0-9.2-10.5.5.5 0 0 1 0-.7c.1-.2.4-.2.6 0 3.4 3.2 6.6 6.8 9.4 10.6.2.3.1.6-.1.7l-.3.1ZM76.6 156.5a.5.5 0 0 1-.5-.5c0-.2.2-.5.5-.5l8.5-.2c.3 0 .5.2.5.5 0 .2-.2.5-.5.5l-8.5.2Z"/></svg>
